<svg xmlns="http://www.w3.org/2000/svg" version="1.1" xmlns:xlink="http://www.w3.org/1999/xlink" xmlns:svgjs="http://svgjs.dev/svgjs" width="1500" height="1500" viewBox="0 0 1500 1500"><rect width="1500" height="1500" fill="#333366"></rect><g transform="matrix(0.6666666666666666,0,0,0.6666666666666666,249.3940567790777,609.2078188510328)"><svg viewBox="0 0 396 112" data-background-color="#333366" preserveAspectRatio="xMidYMid meet" height="424" width="1500" xmlns="http://www.w3.org/2000/svg" xmlns:xlink="http://www.w3.org/1999/xlink"><g id="tight-bounds" transform="matrix(1,0,0,1,0.23995351548524013,-0.21441879003188546)"><svg viewBox="0 0 395.52 112.42874461103416" height="112.42874461103416" width="395.52"><g><svg viewBox="0 0 598.7073082745808 170.18585927073863" height="112.42874461103416" width="395.52"><g transform="matrix(1,0,0,1,0,50.14502196597244)"><svg viewBox="0 0 395.52 69.89581533879375" height="69.89581533879375" width="395.52"><g id="textblocktransform"><svg viewBox="0 0 395.52 69.89581533879375" height="69.89581533879375" width="395.52" id="textblock"><g><svg viewBox="0 0 395.52 69.89581533879375" height="69.89581533879375" width="395.52"><g transform="matrix(1,0,0,1,0,0)"><svg width="395.52" viewBox="1.25 -34.9 201.43 35.6" height="69.89581533879375" data-palette-color="#ffff33"><g class="wordmark-text-0" data-fill-palette-color="primary" id="text-0"><path d="M13.3 0.7L13.3 0.7Q9.9 0.7 7.15-0.78 4.4-2.25 2.83-5.08 1.25-7.9 1.25-11.95L1.25-11.95Q1.25-16 3-18.85 4.75-21.7 7.68-23.23 10.6-24.75 14.1-24.75L14.1-24.75Q16.95-24.75 18.95-23.8 20.95-22.85 22-21.38 23.05-19.9 23.05-18.25L23.05-18.25Q23.05-16.85 22.23-16.1 21.4-15.35 20.1-15.35L20.1-15.35Q18.7-15.35 17.82-16.35 16.95-17.35 16.8-18.9L16.8-18.9Q16.75-19.9 16.82-20.6 16.9-21.3 16.8-21.95L16.8-21.95Q16.6-22.8 16.13-23.1 15.65-23.4 14.8-23.4L14.8-23.4Q11.65-23.4 9.98-20.88 8.3-18.35 8.3-12.7L8.3-12.7Q8.3-7.85 10.15-5.25 12-2.65 15.9-2.65L15.9-2.65Q18.2-2.65 19.7-3.53 21.2-4.4 22.45-6.05L22.45-6.05 23.25-5.45Q22-2.45 19.43-0.88 16.85 0.7 13.3 0.7ZM31.4-27.5L31.4-27.5Q29.75-27.5 28.6-28.55 27.45-29.6 27.45-31.2L27.45-31.2Q27.45-32.85 28.6-33.88 29.75-34.9 31.4-34.9L31.4-34.9Q33.05-34.9 34.2-33.88 35.35-32.85 35.35-31.2L35.35-31.2Q35.35-29.6 34.2-28.55 33.05-27.5 31.4-27.5ZM37.1 0L25.65 0 25.65-0.95 26.4-1.15Q27.4-1.45 27.75-2.05 28.1-2.65 28.15-3.65L28.15-3.65 28.15-12.85Q28.15-14.4 28.15-15.73 28.15-17.05 28.1-18.45L28.1-18.45Q28.1-19.45 27.72-20.03 27.35-20.6 26.35-20.8L26.35-20.8 25.65-20.95 25.65-21.85 34.4-24.75 35-24.2 34.85-17.1 34.85-3.6Q34.85-2.6 35.22-2 35.6-1.4 36.55-1.1L36.55-1.1 37.1-0.95 37.1 0ZM50.75 0L39.3 0 39.3-0.95 40.1-1.15Q41.75-1.65 41.75-3.6L41.75-3.6 41.75-18.35Q41.7-19.4 41.4-19.98 41.1-20.55 40.1-20.75L40.1-20.75 39.3-20.95 39.3-21.85 47.4-24.75 48-24.2 48.35-21.1Q50.15-22.7 52.37-23.73 54.6-24.75 56.75-24.75L56.75-24.75Q60.05-24.75 61.82-22.95 63.6-21.15 63.6-17.45L63.6-17.45 63.6-3.55Q63.6-1.6 65.4-1.1L65.4-1.1 65.95-0.95 65.95 0 54.45 0 54.45-0.95 55.2-1.15Q56.85-1.7 56.85-3.6L56.85-3.6 56.85-18.45Q56.85-20.2 56.1-21 55.35-21.8 53.6-21.8L53.6-21.8Q51.15-21.8 48.5-19.65L48.5-19.65 48.5-3.55Q48.5-1.6 50.25-1.1L50.25-1.1 50.75-0.95 50.75 0ZM80.49-24.75L80.49-24.75Q83.64-24.75 85.89-23.45 88.14-22.15 89.37-19.88 90.59-17.6 90.59-14.65L90.59-14.65Q90.59-14 90.54-13.43 90.49-12.85 90.34-12.35L90.34-12.35 75.29-12.35Q75.34-7.2 77.22-4.95 79.09-2.7 82.69-2.7L82.69-2.7Q85.19-2.7 86.74-3.53 88.29-4.35 89.59-5.85L89.59-5.85 90.39-5.1Q88.89-2.35 86.32-0.83 83.74 0.7 80.19 0.7L80.19 0.7Q76.64 0.7 73.94-0.8 71.24-2.3 69.72-5.13 68.19-7.95 68.19-11.9L68.19-11.9Q68.19-16 69.97-18.85 71.74-21.7 74.57-23.23 77.39-24.75 80.49-24.75ZM80.24-23.3L80.24-23.3Q78.79-23.3 77.72-22.48 76.64-21.65 76.02-19.58 75.39-17.5 75.29-13.75L75.29-13.75 84.24-13.75Q84.79-18.8 83.84-21.05 82.89-23.3 80.24-23.3ZM104.59 0L93.14 0 93.14-1 94.24-1.3Q95.04-1.55 95.29-2.02 95.54-2.5 95.59-3.3L95.59-3.3 95.59-13.2Q95.59-14.85 95.59-16 95.59-17.15 95.54-18.7L95.54-18.7Q95.54-19.55 95.29-20.03 95.04-20.5 94.19-20.7L94.19-20.7 93.14-20.95 93.14-21.85 101.24-24.75 101.84-24.2 102.19-20.85Q103.94-22.45 106.09-23.6 108.24-24.75 110.49-24.75L110.49-24.75Q112.99-24.75 114.39-23.75 115.79-22.75 116.54-20.7L116.54-20.7Q118.44-22.6 120.74-23.68 123.04-24.75 125.29-24.75L125.29-24.75Q128.69-24.75 130.39-23.05 132.09-21.35 132.09-17.7L132.09-17.7 132.09-3.25Q132.09-1.65 133.49-1.25L133.49-1.25 134.44-1 134.44 0 123.19 0 123.19-1 124.09-1.25Q125.44-1.7 125.44-3.3L125.44-3.3 125.44-17.95Q125.44-20.1 124.67-20.88 123.89-21.65 122.14-21.65L122.14-21.65Q120.79-21.65 119.59-21.1 118.39-20.55 116.94-19.4L116.94-19.4Q117.24-17.9 117.24-15.95L117.24-15.95 117.24-3.25Q117.29-2.4 117.57-1.93 117.84-1.45 118.64-1.25L118.64-1.25 119.49-1 119.49 0 108.19 0 108.19-1 109.24-1.3Q110.04-1.55 110.32-2.02 110.59-2.5 110.59-3.3L110.59-3.3 110.59-17.9Q110.59-19.95 109.84-20.8 109.09-21.65 107.29-21.65L107.29-21.65Q104.99-21.65 102.34-19.45L102.34-19.45 102.34-3.25Q102.34-1.6 103.74-1.25L103.74-1.25 104.59-1 104.59 0ZM143.74 0.7L143.74 0.7Q140.89 0.7 138.91-0.93 136.94-2.55 136.94-5.6L136.94-5.6Q136.94-8 139.26-10.03 141.59-12.05 146.59-13L146.59-13Q147.44-13.2 148.56-13.38 149.69-13.55 150.79-13.75L150.79-13.75 150.79-17.3Q150.79-20.7 149.94-22 149.09-23.3 147.24-23.3L147.24-23.3 147.09-23.3Q145.94-23.3 145.26-22.58 144.59-21.85 144.39-20.2L144.39-20.2 144.24-19.55Q144.09-17.55 143.19-16.63 142.29-15.7 140.94-15.7L140.94-15.7Q139.69-15.7 138.86-16.48 138.04-17.25 138.04-18.5L138.04-18.5Q138.04-20.55 139.44-21.95 140.84-23.35 143.16-24.05 145.49-24.75 148.19-24.75L148.19-24.75Q152.64-24.75 154.99-22.6 157.34-20.45 157.34-15.6L157.34-15.6 157.34-4.45Q157.34-2.3 159.39-2.3L159.39-2.3 160.54-2.3 161.04-1.75Q160.14-0.6 159.04 0.03 157.94 0.65 156.04 0.65L156.04 0.65Q153.89 0.65 152.61-0.38 151.34-1.4 150.94-3.1L150.94-3.1Q149.34-1.4 147.79-0.35 146.24 0.7 143.74 0.7ZM146.64-2.5L146.64-2.5Q147.64-2.5 148.54-2.95 149.44-3.4 150.79-4.45L150.79-4.45 150.79-12.45Q149.49-12.25 148.14-11.95L148.14-11.95Q145.99-11.45 144.66-10.1 143.34-8.75 143.34-6.45L143.34-6.45Q143.34-4.45 144.26-3.48 145.19-2.5 146.64-2.5ZM171.59 0.7L171.59 0.7Q168.49 0.7 166.71-0.83 164.94-2.35 164.94-5.8L164.94-5.8Q164.94-7 164.96-8.08 164.99-9.15 164.99-10.6L164.99-10.6 164.99-22.45 161.44-22.45 161.44-23.55 162.79-23.75Q164.24-24 165.26-24.65 166.29-25.3 167.14-26.45L167.14-26.45 170.39-30.95 171.89-30.95 171.74-24 177.44-24 177.44-22.45 171.69-22.45 171.69-5.4Q171.69-3.6 172.46-2.7 173.24-1.8 174.39-1.8L174.39-1.8Q175.39-1.8 176.19-2.27 176.99-2.75 177.79-3.55L177.79-3.55 178.44-2.8Q177.49-1.15 175.79-0.23 174.09 0.7 171.59 0.7ZM192.58-24.75L192.58-24.75Q195.73-24.75 197.98-23.45 200.23-22.15 201.46-19.88 202.68-17.6 202.68-14.65L202.68-14.65Q202.68-14 202.63-13.43 202.58-12.85 202.43-12.35L202.43-12.35 187.38-12.35Q187.43-7.2 189.31-4.95 191.18-2.7 194.78-2.7L194.78-2.7Q197.28-2.7 198.83-3.53 200.38-4.35 201.68-5.85L201.68-5.85 202.48-5.1Q200.98-2.35 198.41-0.83 195.83 0.7 192.28 0.7L192.28 0.7Q188.73 0.7 186.03-0.8 183.33-2.3 181.81-5.13 180.28-7.95 180.28-11.9L180.28-11.9Q180.28-16 182.06-18.85 183.83-21.7 186.66-23.23 189.48-24.75 192.58-24.75ZM192.33-23.3L192.33-23.3Q190.88-23.3 189.81-22.48 188.73-21.65 188.11-19.58 187.48-17.5 187.38-13.75L187.38-13.75 196.33-13.75Q196.88-18.8 195.93-21.05 194.98-23.3 192.33-23.3Z" fill="#ffff33" data-fill-palette-color="primary"></path></g></svg></g></svg></g></svg></g></svg></g><g transform="matrix(1,0,0,1,428.5214490038421,0)"><svg viewBox="0 0 170.18585927073863 170.18585927073863" height="170.18585927073863" width="170.18585927073863"><g><svg></svg></g><g id="icon-0"><svg viewBox="0 0 170.18585927073863 170.18585927073863" height="170.18585927073863" width="170.18585927073863"><g><path d="M0 85.093c0-46.996 38.097-85.093 85.093-85.093 46.996 0 85.093 38.097 85.093 85.093 0 46.996-38.097 85.093-85.093 85.093-46.996 0-85.093-38.097-85.093-85.093zM85.093 163.883c43.514 0 78.79-35.275 78.79-78.79 0-43.514-35.275-78.79-78.79-78.79-43.514 0-78.79 35.275-78.79 78.79 0 43.514 35.275 78.79 78.79 78.79z" data-fill-palette-color="accent" fill="#ffffff" stroke="transparent"></path></g><g transform="matrix(1,0,0,1,35.84980787451676,55.27974512930989)"><svg viewBox="0 0 98.4862435217051 59.62636901211886" height="59.62636901211886" width="98.4862435217051"><g><svg xmlns="http://www.w3.org/2000/svg" xmlns:xlink="http://www.w3.org/1999/xlink" version="1.1" x="0" y="0" viewBox="0.5 18.646 98.939 59.90048064316598" enable-background="new 0 0 100 100" xml:space="preserve" height="59.62636901211886" width="98.4862435217051" class="icon-cg-0" data-fill-palette-color="accent" id="cg-0"><g fill="#ffffff" data-fill-palette-color="accent"><g fill="#ffffff" data-fill-palette-color="accent"><path d="M31.524 42.103c-0.725-2.99-5.178-1.794-5.178-1.794s-4.506 0.977-3.783 3.966c0.044 0.176 0.154 0.626 0.154 0.626s1.181-1.214 4.267-1.962c3.088-0.749 4.692-0.211 4.692-0.211S31.575 42.31 31.524 42.103z" fill="#ffffff" data-fill-palette-color="accent"></path><path d="M43.246 48.387c0 0-1.529 2.339-5.928 3.394-4.4 1.056-6.837-0.327-6.837-0.327s0.218 0.891 0.326 1.332c1.55 6.356 7.876 4.592 7.876 4.592s6.438-1.301 4.887-7.658C43.479 49.344 43.246 48.387 43.246 48.387z" fill="#ffffff" data-fill-palette-color="accent"></path><path d="M46.992 38.353c-0.725-2.989-5.179-1.796-5.179-1.796s-4.506 0.978-3.782 3.968c0.044 0.177 0.152 0.625 0.152 0.625s1.181-1.211 4.269-1.96c3.087-0.749 4.691-0.212 4.691-0.212S47.042 38.561 46.992 38.353z" fill="#ffffff" data-fill-palette-color="accent"></path><path d="M99.439 55.861c0 0-6.404-0.959-8.644-1.602-2.242-0.64 3.034-5.07 0-6.082-2.612-0.871-5.481-0.457-7.844 0.254 0.604-3.11 1.222-6.266 1.593-8.164l0.576-2.989-2.655 1.496c-0.022 0.012-0.808 0.435-2.353 0.877-3.521-0.28-9.148-0.598-15.406-1.618-4.248-0.692-8.105-1.596-11.225-2.375-0.878-4.085-2.326-10.845-3.01-14.037l-0.643-2.975-1.856 2.419c-0.015 0.018-0.57 0.716-1.816 1.729-3.347 1.125-8.65 3.044-14.806 4.563-5.895 1.456-11.277 2.225-14.785 2.78-1.823-0.347-2.764-0.769-2.784-0.778l-2.785-1.352 0.812 2.987c1.531 5.641 4.469 16.482 4.629 17.142 0.08 0.33 0.171 0.652 0.265 0.976-1.784-0.673-4.438-1.172-7.56-0.131-3.038 1.013 2.241 5.443 0 6.083C6.903 55.705 0.5 56.664 0.5 56.664l5.763 1.922-4.162 3.842 10.244-1.92c0 0 4.85-1.152 3.202-4.482-2.126-4.295 1.617-2.01 3.994-0.688 5.446 8.547 15.559 13.227 21.516 11.795l0.051-0.014c0 0 0 0 0.001 0 1.184-0.291 2.402-0.879 3.603-1.708 3.011 7.002 8.588 12.215 13.302 13.013l0.052 0.008c0 0 0 0 0.002 0 7.543 1.23 20.892-7.569 23.094-20.733 0.034-0.202 0.339-1.784 0.762-3.961 2.232-1.079 4.318-1.911 2.471 1.483-2.019 3.708 3.2 4.483 3.2 4.483l10.246 1.921-4.163-3.843L99.439 55.861zM59.541 48.782c0 0-0.066 0.426-0.1 0.636-0.482 3.038-5.018 2.205-5.018 2.205s-0.214-0.031-0.541-0.106c0.239-0.863 0.438-1.744 0.594-2.64 0.126 0.023 0.24 0.05 0.371 0.071C57.986 49.447 59.541 48.782 59.541 48.782zM40.433 64.387l0.338 1.365-0.372-1.357c-5.538 1.331-18.309-4.898-21.224-16.92-0.162-0.664-2.723-10.115-3.975-14.733 3.09 0.712 8.874 1.32 17.326-0.729l0.234-0.058c8.306-2.05 13.101-5.197 15.498-7.228 1.008 4.705 3.075 14.353 3.211 14.918C54.379 51.646 45.936 63.028 40.433 64.387zM66.391 68.146c-0.062 0.38-0.217 1.354-0.217 1.354s-1.715-2.208-6.184-2.905c-4.469-0.7-6.787 0.876-6.787 0.876s0.144-0.905 0.217-1.354c1.035-6.462 7.482-5.212 7.482-5.212S67.424 61.684 66.391 68.146zM75.16 51.912c-0.482 3.035-5.018 2.206-5.018 2.206s-4.57-0.612-4.088-3.651c0.029-0.179 0.102-0.635 0.102-0.635s1.273 1.114 4.411 1.61c3.138 0.5 4.694-0.166 4.694-0.166S75.193 51.7 75.16 51.912z" fill="#ffffff" data-fill-palette-color="accent"></path></g></g></svg></g></svg></g></svg></g></svg></g></svg></g><defs></defs></svg><rect width="395.52" height="112.42874461103416" fill="none" stroke="none" visibility="hidden"></rect></g></svg></g></svg>